<svg height="20" viewBox="0 0 20 20" width="20" xmlns="http://www.w3.org/2000/svg"><path fill="#8EA2B9" d="m10.00999 3.98434797c-1.09890109 0-1.99800199.90253077-1.99800199 2.00562393 0 1.10309312.8991009 2.00562389 1.99800199 2.00562389 1.0989011 0 1.998002-.90253077 1.998002-2.00562389 0-1.10309316-.8991009-2.00562393-1.998002-2.00562393zm9.99001 1.97553957c0-.01002812 0-.02005624 0-.03008436v-.01002812c0-.01002812 0-.01002812 0-.02005624s0-.01002812 0-.02005624c-.01998-.16044991-.0999001-.32089982-.2097902-.44123726-.6393606-.80224957-1.3986014-1.51424607-2.1678322-2.16607384-1.6583416-1.40393675-3.5664335-2.58725487-5.6643356-3.0585765-1.2087913-.27075923-2.43756248-.28078735-3.6563437-.05014059-1.10889111.20056239-2.17782218.64179965-3.17682318 1.18331811-1.56843156.85239017-2.99700299 2.01565205-4.24575424 3.32933573-.22977023.25070299-.45954046.49137786-.66933067.76213709-.27972028.35098419-.27972028.77216517 0 1.12314936.63936064.80224957 1.3986014 1.51424607 2.16783217 2.16607384 1.65834166 1.40393678 3.56643356 2.57722678 5.66433566 3.05857648 1.20879121.2707592 2.43756246.2807874 3.65634366.0501406 1.1088911-.2105905 2.1778222-.6518278 3.1768232-1.1933462 1.5684315-.85239019 2.997003-2.01565207 4.2457542-3.32933575.2297703-.24067487.4595405-.49137786.6693307-.75210897.1098901-.12033744.1798202-.27075923.2097902-.44123726 0-.01002812 0-.01002812 0-.02005624s0-.01002812 0-.02005624v-.01002812c0-.01002812 0-.02005624 0-.03008436s0-.03008432 0-.04011244c0-.02005624 0-.03008436 0-.04011248zm-9.99001 4.04133216c-2.2077922 0-3.99600399-1.7950334-3.99600399-4.0112478 0-2.21621444 1.78821179-4.01124786 3.99600399-4.01124786s3.996004 1.79503342 3.996004 4.01124786c0 2.2162144-1.7882118 4.0112478-3.996004 4.0112478z" transform="translate(0 4)"/></svg>