<svg width="20" height="20" viewBox="0 0 20 20" fill="none" xmlns="http://www.w3.org/2000/svg">
<path d="M3.02023 12.5C4.17418 13.6556 5.71087 14.3493 7.34081 14.4505C8.97076 14.5516 10.5814 14.0532 11.8694 13.0492L16.3011 17.4809C16.4582 17.6327 16.6687 17.7167 16.8872 17.7148C17.1057 17.7129 17.3147 17.6252 17.4692 17.4707C17.6238 17.3162 17.7114 17.1072 17.7133 16.8887C17.7152 16.6702 17.6312 16.4597 17.4794 16.3025L13.0477 11.8709C14.0963 10.5252 14.5921 8.83015 14.4339 7.1315C14.2757 5.43285 13.4755 3.85852 12.1965 2.72958C10.9174 1.60064 9.25593 1.00212 7.55078 1.05609C5.84564 1.11006 4.22531 1.81246 3.02023 3.02003C2.39756 3.64238 1.90362 4.38132 1.56661 5.19462C1.22961 6.00793 1.05615 6.87966 1.05615 7.76003C1.05615 8.64039 1.22961 9.51213 1.56661 10.3254C1.90362 11.1387 2.39756 11.8777 3.02023 12.5ZM4.19857 4.20003C5.02238 3.37623 6.10633 2.86356 7.26575 2.74936C8.42518 2.63515 9.58833 2.92648 10.557 3.57371C11.5257 4.22094 12.2401 5.18402 12.5783 6.29887C12.9166 7.41372 12.8578 8.61136 12.412 9.68774C11.9663 10.7641 11.1611 11.6526 10.1337 12.2019C9.10626 12.7512 7.92017 12.9273 6.7775 12.7001C5.63483 12.473 4.60627 11.8566 3.86706 10.9561C3.12786 10.0557 2.72374 8.92672 2.72356 7.76169C2.72128 7.09967 2.85049 6.44379 3.10369 5.83209C3.35689 5.2204 3.72905 4.66508 4.19857 4.19836V4.20003Z" fill="#F76B56"/>
</svg>
